<svg width="754" height="834" viewBox="0 0 754 834" fill="none" xmlns="http://www.w3.org/2000/svg">
<path d="M349.076 382.091C379.877 366.238 403.665 340.18 411.617 302.149C420.92 257.71 415.256 198.332 470.483 162.872C484.804 153.659 501.783 147.883 513.954 136.501C534.031 117.721 531.875 89.592 513.558 77.984C484.12 59.3626 447.859 78.4906 411.844 91.4371C371.074 106.061 343.525 92.2652 305.662 97.7339C271.583 102.661 282.347 205.991 255.891 228.496C204.503 272.256 112.958 260.137 118.269 314.338C125.672 391.404 264.13 425.752 349.076 382.091Z" fill="#FFF8F2"/>
<path d="M589.294 116.403C575.983 115.295 563.045 122.367 553.08 141.556C541.433 163.975 531.898 199.925 506.678 201.975C500.134 202.518 493.366 200.207 487.122 202.706C476.82 206.832 472.128 223.687 475.998 236.417C482.224 256.855 497.984 257.892 512.473 262.395C528.869 267.51 535.394 284.554 549.061 293.96C561.363 302.423 576.45 301.339 589.593 297.19C615.131 289.104 644.502 264.611 653.159 231.749C665.516 185.073 625.994 119.491 589.294 116.403Z" fill="#FFF8F2"/>
<path d="M343.889 379.083C333.912 364.1 312.961 361.457 299.571 373.499C288.474 383.476 286.549 400.156 295.091 412.391L322.465 451.58L368.97 416.696L343.889 379.083Z" fill="#FB795C"/>
<path d="M526.602 449.689L514.63 434.567C511.707 431.311 506.999 430.349 503.025 432.187L470.12 447.484L382.028 435.827L368.971 416.696L327.594 447.729L344.309 470.028C349.42 476.854 357.296 480.285 365.172 480.092C365.26 480.11 365.33 480.127 365.417 480.127L466.024 476.031C477.296 480.127 485.838 475.961 485.838 475.961L503.34 469.8L507.384 473.686C510.009 476.206 514.035 476.556 517.063 474.544L522.629 470.815C524.431 469.608 525.832 467.91 526.689 465.915L528.562 461.521C530.26 457.513 529.49 452.91 526.602 449.689Z" fill="#FB795C"/>
<path d="M429.198 716.242L429.268 722.823L539.326 721.615L539.256 715.034L535.091 715.086C535.091 715.051 535.091 698.179 514.227 695.361C493.346 692.525 488.55 693.925 483.79 687.729C481.077 684.211 480.359 679.433 480.202 676.23C480.114 674.287 478.521 672.764 476.578 672.782H476.036L476.106 656.329H487.273H494.729V633.89H487.273V539.9V539.322H487.238C486.923 521.854 472.693 507.782 455.155 507.782H303.177C303.177 507.782 280.616 572.017 342.191 572.017H424.402V633.908H418.084V656.347H424.402H435.079L435.727 673.289C433.889 673.464 432.436 675.005 432.471 676.877L432.909 716.207" fill="black"/>
<path d="M516.993 381.095V409.555C516.993 409.555 523.031 408.628 523.031 393.75C523.031 378.855 516.993 381.095 516.993 381.095Z" fill="#89AADB"/>
<path d="M538.451 435.932L533.498 401.189C533.218 399.176 531.608 397.653 529.577 397.461L519.898 396.603L520.143 393.925L529.822 394.783C533.095 395.08 535.703 397.548 536.158 400.804L541.112 435.547L538.451 435.932Z" fill="#89AADB"/>
<path d="M543.177 447.922L526.865 389.497C525.464 384.491 520.896 381.025 515.698 381.025H506.719" stroke="#FBFBFB" stroke-width="1.5321" stroke-miterlimit="10"/>
<path d="M503.183 400.716C507.088 400.716 510.254 391.266 510.254 379.608C510.254 367.95 507.088 358.499 503.183 358.499C499.278 358.499 496.112 367.95 496.112 379.608C496.112 391.266 499.278 400.716 503.183 400.716Z" fill="#FBFBFB"/>
<path d="M574.658 462.116C576.632 449.901 568.329 438.399 556.114 436.426C543.9 434.452 532.398 442.755 530.424 454.969C528.451 467.184 536.753 478.686 548.968 480.66C561.183 482.633 572.684 474.331 574.658 462.116Z" fill="#FBFBFB"/>
<path d="M550.948 486.971H529.542C525.114 486.971 521.526 483.383 521.526 478.954V438.155C521.526 433.727 525.114 430.139 529.542 430.139H550.948C555.377 430.139 558.965 433.727 558.965 438.155V478.954C558.965 483.383 555.377 486.971 550.948 486.971Z" fill="#FF9900"/>
<path d="M96.9226 686.557H64.9447V708.488H96.9226V686.557Z" fill="black"/>
<path d="M637.518 833.074C686.537 833.074 726.275 793.336 726.275 744.316C726.275 695.297 686.537 655.559 637.518 655.559C588.499 655.559 548.761 695.297 548.761 744.316C548.761 793.336 588.499 833.074 637.518 833.074Z" fill="black"/>
<path d="M637.518 800.781C668.702 800.781 693.982 775.501 693.982 744.316C693.982 713.132 668.702 687.852 637.518 687.852C606.334 687.852 581.054 713.132 581.054 744.316C581.054 775.501 606.334 800.781 637.518 800.781Z" fill="#FFCB7E"/>
<path d="M621.083 744.316C621.083 753.4 628.451 760.769 637.536 760.769C646.62 760.769 653.988 753.4 653.988 744.316C653.988 735.232 646.62 727.863 637.536 727.863C628.451 727.863 621.083 735.232 621.083 744.316Z" fill="white"/>
<path d="M637.763 621.113C701.964 621.113 754 673.149 754 737.35H521.526C521.526 673.167 573.562 621.113 637.763 621.113Z" fill="#0F2C82"/>
<path d="M233.089 428.781H48.3051C42.7822 428.781 38.3051 433.258 38.3051 438.781V579.306H243.089V438.781C243.089 433.258 238.612 428.781 233.089 428.781Z" fill="#FB795C"/>
<path d="M233.089 426.971H48.3051C42.7822 426.971 38.3051 431.448 38.3051 436.971V446.224H243.089V436.971C243.089 431.448 238.612 426.971 233.089 426.971Z" fill="#333333"/>
<path d="M37.1324 581.136H215.19" stroke="black" stroke-width="3.4182" stroke-miterlimit="10"/>
<path d="M96.9751 581.136L136.602 610.191" stroke="black" stroke-width="3.4182" stroke-miterlimit="10"/>
<path d="M530.155 439.083L484.63 465.267L524.939 556.212C524.939 556.212 552.559 605.308 534.618 648.278C514.367 696.778 491.053 722.088 491.053 722.088H400.528C382.063 722.088 364.822 712.881 354.496 697.583C343.714 681.621 334.35 659.62 341.946 637.058C355.493 596.802 395.207 578.336 395.207 578.336H176.753C176.753 578.336 138.614 589.608 82.2025 686.557H107.389L270.954 737.35H489.006C489.006 737.35 514.14 745.821 548.761 690.215L604.805 637.058C604.805 610.909 596.491 585.425 581.053 564.299L530.155 494.672V439.083Z" fill="#FF9900"/>
<path d="M361.094 582.502C365.663 582.502 370.021 584.252 373.294 587.438C381.048 594.964 396.888 607.426 408.492 597.029C424.437 582.764 410.173 558.855 385.843 560.956C361.514 563.056 281.789 563.476 252.419 547.531C223.049 531.586 211.724 530.746 202.5 540.81C193.276 550.874 207.961 578.879 235.231 582.502H361.094V582.502Z" fill="black"/>
<path d="M197.547 833.074C246.566 833.074 286.304 793.336 286.304 744.316C286.304 695.297 246.566 655.559 197.547 655.559C148.527 655.559 108.789 695.297 108.789 744.316C108.789 793.336 148.527 833.074 197.547 833.074Z" fill="black"/>
<path d="M197.547 800.781C228.731 800.781 254.011 775.501 254.011 744.316C254.011 713.132 228.731 687.852 197.547 687.852C166.362 687.852 141.082 713.132 141.082 744.316C141.082 775.501 166.362 800.781 197.547 800.781Z" fill="#FFCB7E"/>
<path d="M181.094 744.316C181.094 753.4 188.463 760.769 197.547 760.769C206.631 760.769 214 753.4 214 744.316C214 735.232 206.631 727.863 197.547 727.863C188.463 727.863 181.094 735.232 181.094 744.316Z" fill="white"/>
<path d="M75.7439 726.148C75.7439 726.148 88.7136 642.047 181.619 606.026C274.525 570.005 309.898 620.921 314.869 630.512C323.095 646.387 334.192 694.293 303.282 726.148H75.7439Z" fill="#0F2C82"/>
<path d="M144.093 700.069H247.237C249.128 700.069 250.651 698.546 250.651 696.656C250.651 694.765 249.128 693.243 247.237 693.243H144.093C142.202 693.243 140.68 694.765 140.68 696.656C140.697 698.528 142.22 700.069 144.093 700.069Z" fill="white"/>
<path d="M155.61 683.651H238.171C240.061 683.651 241.584 682.128 241.584 680.238C241.584 678.348 240.061 676.825 238.171 676.825H155.61C153.719 676.825 152.197 678.348 152.197 680.238C152.197 682.128 153.737 683.651 155.61 683.651Z" fill="white"/>
<path d="M167.179 667.583H226.304C228.194 667.583 229.717 666.061 229.717 664.17C229.717 662.28 228.194 660.757 226.304 660.757H167.179C165.289 660.757 163.766 662.28 163.766 664.17C163.766 666.061 165.289 667.583 167.179 667.583Z" fill="white"/>
<path d="M349.84 313.919L328.924 368.756L292.062 359.829L317.984 308.913L349.84 313.919Z" fill="#FFB09E"/>
<path d="M323.48 307.146C323.48 307.146 321.362 332.682 335.015 352.758L341.736 334.853L323.48 307.146Z" fill="#BD7980"/>
<path d="M367.01 285.197L370.633 321.726C371.526 330.74 364.945 338.791 355.913 339.684C342.944 340.961 330.709 333.225 325.703 321.201L313.924 293.423C311.316 287.157 315.499 280.139 322.255 279.474L351.362 273.383C356.928 272.822 366.45 279.649 367.01 285.197Z" fill="#FFB09E"/>
<path d="M368.06 301.527L375.534 310.629C376.444 312.169 374.834 313.972 372.681 313.849L361.672 315.897L368.06 301.527Z" fill="#FFB09E"/>
<path d="M326.596 286.247C326.596 286.247 337.57 290.238 333.824 299.077C330.691 306.481 332.862 319.73 342.576 316.842C352.29 313.937 362.424 311.311 369.898 314.392L372.208 324.333C374.134 332.612 369.163 341.014 360.919 343.079C360.779 343.114 360.621 343.149 360.481 343.184C345.639 346.72 322.132 340.244 322.518 314.042L319.787 289.94L326.596 286.247Z" fill="black"/>
<path d="M318.317 272.945C315.831 273.382 295.703 272.682 295.511 295.104C295.388 309.368 307.307 325.279 307.395 325.139C307.395 325.139 314.746 324.684 316.794 314.199C317.319 311.521 316.899 309.631 315.989 308.301L331.637 288.12C331.637 288.12 327.243 284.847 334.069 280.839C346.234 273.68 360.184 276.498 360.184 276.498C356.351 263.546 320.802 272.507 318.317 272.945Z" fill="black"/>
<path d="M304.542 304.205C301.146 313.132 309.093 320.833 317.267 318.26C321.082 317.052 323.848 313.692 324.285 309.701C325.213 301.177 316.094 294.911 308.008 299.987C306.432 300.967 305.207 302.472 304.542 304.205Z" fill="#FFB09E"/>
<path d="M315.779 304.03C315.779 304.03 308.498 305.01 312.156 312.327" stroke="black" stroke-width="1.0231" stroke-miterlimit="10" stroke-linecap="round" stroke-linejoin="round"/>
<path d="M364.14 302C364.07 303.207 363.037 304.118 361.829 304.048C360.622 303.978 359.711 302.945 359.781 301.737C359.851 300.53 360.884 299.619 362.092 299.689C363.299 299.777 364.21 300.81 364.14 302Z" fill="black"/>
<path d="M363.632 291.568C364.227 293.458 361.199 294.141 357.628 294.999C354.075 295.856 351.082 296.311 350.732 294.666C350.435 293.213 353.165 292.093 356.736 291.235C360.289 290.378 363.142 289.958 363.632 291.568Z" fill="black"/>
<path d="M356.946 318.453C356.946 318.453 358.976 322.391 367.308 320.168" stroke="white" stroke-width="0.7712" stroke-miterlimit="10" stroke-linecap="round" stroke-linejoin="round"/>
<path d="M311.351 352.968C311.351 352.968 292.763 347.63 281.596 366.708C268.381 389.269 271.567 425.133 282.366 454.118L286.987 508.009H375.849C375.849 508.009 379.84 448.604 362.722 410.605C340.108 360.477 311.351 352.968 311.351 352.968Z" fill="white"/>
<path d="M364.455 427.461L380.82 451.44C388.154 462.169 386.123 476.731 376.129 485.045C365.032 494.287 348.457 492.344 339.793 480.792L323.078 458.493L364.455 427.461Z" fill="#FFB09E"/>
<path d="M364.175 427.461L339.093 389.847C329.116 374.864 308.165 372.221 294.776 384.263C283.679 394.24 281.754 410.92 290.295 423.155L317.67 462.344L364.175 427.461Z" fill="white"/>
<path d="M364.455 427.461L341.754 393.785" stroke="#D1D1D1" stroke-width="1.0747" stroke-miterlimit="10"/>
<path d="M323.095 458.476L317.67 462.327L286.304 414.999" stroke="#D1D1D1" stroke-width="1.0747" stroke-miterlimit="10"/>
<path d="M363.755 444.754L465.604 458.231L461.509 486.778L360.902 490.874C344.047 488.493 332.145 475.261 337.676 459.158C341.964 446.731 350.785 442.723 363.755 444.754Z" fill="#FFB09E"/>
<path d="M458.043 461.749L498.527 442.933C502.501 441.096 507.209 442.058 510.132 445.314L522.104 460.454C524.992 463.674 525.762 468.295 524.064 472.268L522.191 476.661C521.351 478.657 519.933 480.355 518.131 481.562L512.565 485.29C509.537 487.321 505.511 486.953 502.886 484.433L498.842 480.547L481.339 486.708C481.339 486.708 468.247 493.097 453.09 482.297L458.043 461.749Z" fill="#FFB09E"/>
<path d="M488.183 468.015L479.537 473.266C474.391 477.747 474.233 485.693 479.222 490.366C483.895 494.742 491.246 494.479 495.587 489.754L503.621 483.873C507.786 479.339 507.454 472.286 502.886 468.173C498.702 464.392 492.401 464.339 488.183 468.015Z" fill="black"/>
<path d="M418.154 637.969L459.968 641.242L459.793 680.781L419.816 681.358L418.154 637.969Z" fill="white"/>
<path d="M416.246 676.878L416.684 716.207L518.866 715.086C518.866 715.086 518.883 698.179 498.002 695.361C477.121 692.525 472.325 693.925 467.565 687.729C464.852 684.211 464.134 679.433 463.976 676.23C463.889 674.287 462.296 672.764 460.353 672.782L419.782 673.237C417.821 673.272 416.228 674.882 416.246 676.878Z" fill="black"/>
<path d="M413.07 722.888L523.117 721.677L523.045 715.097L412.997 716.308L413.07 722.888Z" fill="black"/>
<path d="M457.955 685.542C457.973 686.399 458.673 687.082 459.531 687.082C460.388 687.064 461.071 686.364 461.071 685.507C461.053 684.649 460.353 683.966 459.496 683.966C458.62 683.984 457.938 684.684 457.955 685.542Z" fill="#DBDADB"/>
<path d="M462.786 692.35C462.804 693.208 463.504 693.89 464.361 693.89C465.219 693.873 465.902 693.173 465.902 692.315C465.884 691.458 465.184 690.775 464.326 690.775C463.451 690.792 462.769 691.493 462.786 692.35Z" fill="#DBDADB"/>
<path d="M471.73 696.481C471.748 697.338 472.448 698.021 473.305 698.021C474.163 698.004 474.846 697.303 474.846 696.446C474.828 695.588 474.128 694.906 473.27 694.906C472.395 694.923 471.713 695.623 471.73 696.481Z" fill="#DBDADB"/>
<path d="M482.127 697.916C482.144 698.774 482.845 699.456 483.702 699.456C484.56 699.439 485.242 698.739 485.242 697.881C485.225 697.023 484.525 696.341 483.667 696.341C482.81 696.358 482.127 697.058 482.127 697.916Z" fill="#DBDADB"/>
<path d="M416.683 716.207L518.883 715.086" stroke="white" stroke-width="0.6077" stroke-miterlimit="10"/>
<path d="M471.065 539.34H408.194V656.347H471.065V539.34Z" fill="#0F2C82"/>
<path d="M478.521 633.908H401.876V656.347H478.521V633.908Z" fill="#FFCB7E"/>
<path d="M286.969 507.799C286.969 507.799 264.408 572.035 325.983 572.035H438.947C456.678 572.035 471.065 557.665 471.065 539.917C471.065 522.187 456.695 507.799 438.947 507.799H286.969V507.799Z" fill="#0F2C82"/>
<path d="M408.194 573.348H428.655" stroke="black" stroke-width="1.0747" stroke-miterlimit="10"/>
<path d="M291.209 299.199L370.861 282.146C370.861 282.146 362.881 244.516 322.387 253.259C282.208 261.946 291.209 299.199 291.209 299.199Z" fill="#FB795C"/>
<path d="M389.61 281.768C383.663 275.393 370.464 270.623 365.942 270.288L353.358 285.829L389.61 281.768Z" fill="black"/>
<ellipse cx="314.851" cy="293.073" rx="24.5041" ry="30.6301" fill="#FB795C"/>
<path d="M156.412 538.381L157.629 505.506H163.108L164.326 538.381C164.347 538.913 164.259 539.444 164.069 539.942C163.88 540.439 163.591 540.894 163.222 541.277C162.852 541.661 162.409 541.966 161.919 542.174C161.429 542.383 160.902 542.49 160.369 542.49V542.49C159.836 542.49 159.309 542.383 158.819 542.174C158.329 541.966 157.885 541.661 157.516 541.277C157.146 540.894 156.858 540.439 156.668 539.942C156.479 539.444 156.391 538.913 156.412 538.381V538.381Z" fill="#333333"/>
<path d="M163.109 520.573H149.411C149.048 520.573 148.699 520.429 148.442 520.172C148.185 519.915 148.041 519.567 148.041 519.203V494.547C148.046 490.552 149.635 486.723 152.459 483.898C155.284 481.073 159.114 479.484 163.109 479.479C163.472 479.479 163.82 479.624 164.077 479.881C164.334 480.138 164.479 480.486 164.479 480.849V519.203C164.479 519.567 164.334 519.915 164.077 520.172C163.82 520.429 163.472 520.573 163.109 520.573Z" fill="white"/>
<path d="M122.167 538.381L123.385 505.506H128.864L130.082 538.381C130.102 538.913 130.015 539.444 129.825 539.942C129.635 540.439 129.347 540.894 128.977 541.277C128.608 541.661 128.165 541.966 127.674 542.174C127.184 542.383 126.657 542.49 126.124 542.49V542.49C125.592 542.49 125.064 542.383 124.574 542.174C124.084 541.966 123.641 541.661 123.271 541.277C122.902 540.894 122.614 540.439 122.424 539.942C122.234 539.444 122.147 538.913 122.167 538.381V538.381Z" fill="#333333"/>
<path d="M134.248 482.167L132.973 500.026H128.864L127.589 482.167C127.563 481.809 127.403 481.474 127.14 481.23C126.878 480.985 126.532 480.849 126.174 480.849H126.075C125.716 480.849 125.371 480.985 125.108 481.23C124.846 481.474 124.686 481.809 124.66 482.167L123.385 500.026H119.275L118 482.167C117.974 481.809 117.814 481.474 117.552 481.23C117.289 480.985 116.944 480.849 116.585 480.849V480.849C116.209 480.849 115.848 480.999 115.582 481.265C115.315 481.531 115.166 481.892 115.166 482.268V502.766C115.166 503.665 115.343 504.556 115.687 505.387C116.031 506.218 116.536 506.973 117.172 507.609C118.456 508.893 120.198 509.615 122.015 509.615H130.234C131.133 509.615 132.024 509.438 132.855 509.094C133.686 508.749 134.441 508.245 135.077 507.609C135.713 506.973 136.217 506.218 136.561 505.387C136.905 504.556 137.083 503.665 137.083 502.766V482.268C137.083 481.892 136.933 481.531 136.667 481.265C136.401 480.999 136.04 480.849 135.663 480.849V480.849C135.305 480.849 134.959 480.985 134.697 481.23C134.434 481.474 134.274 481.809 134.248 482.167V482.167Z" fill="white"/>
<circle cx="573.939" cy="73.5083" r="8.8795" fill="#EEF2FF"/>
<path d="M180.577 135.665H151.242C149.741 135.665 148.53 136.892 148.53 138.426V154.925C148.53 156.443 149.741 157.686 151.242 157.686H163.189L173.231 164.903V158.09L180.609 157.944C182.094 157.912 183.273 156.685 183.273 155.184V138.426C183.289 136.892 182.078 135.665 180.577 135.665Z" stroke="white" stroke-width="1.0747" stroke-miterlimit="10"/>
<path d="M433.32 400.112C437.243 400.112 440.423 396.932 440.423 393.009C440.423 389.086 437.243 385.905 433.32 385.905C429.396 385.905 426.216 389.086 426.216 393.009C426.216 396.932 429.396 400.112 433.32 400.112Z" stroke="white" stroke-width="1.0747" stroke-miterlimit="10"/>
<path d="M364.431 54.942H355.18V64.322H364.431V54.942Z" stroke="white" stroke-width="1.0747" stroke-miterlimit="10"/>
<path d="M511.007 283.872C511.007 286.374 509.005 288.392 506.551 288.392C504.097 288.392 502.095 286.374 502.095 283.872C502.095 281.369 504.097 279.351 506.551 279.351C509.021 279.351 511.007 281.369 511.007 283.872Z" fill="#FCFCF2"/>
<path d="M627.684 306.28C631.063 306.28 633.803 303.505 633.803 300.081C633.803 296.657 631.063 293.881 627.684 293.881C624.305 293.881 621.565 296.657 621.565 300.081C621.565 303.505 624.305 306.28 627.684 306.28Z" fill="#FCFCF2"/>
<rect x="237.325" y="64.6288" width="98.4818" height="98.4818" rx="10" fill="#FFDCA8"/>
<path d="M303.956 132.874C313.25 123.58 313.25 108.511 303.956 99.2165C294.661 89.9223 279.592 89.9223 270.298 99.2165C261.004 108.511 261.004 123.58 270.298 132.874C279.592 142.168 294.661 142.168 303.956 132.874Z" fill="#FBFBFB"/>
<path d="M287.126 116.044V108.995" stroke="#FFCB7E" stroke-width="2.88038" stroke-miterlimit="10" stroke-linecap="round" stroke-linejoin="round"/>
<path d="M287.126 117.337L303.019 116.044" stroke="#FFCB7E" stroke-width="2.88038" stroke-miterlimit="10" stroke-linecap="round" stroke-linejoin="round"/>
<path d="M198.903 339.086H120.748C113.8 339.086 108.169 332.255 108.169 323.826V251.021C108.169 242.592 113.8 235.761 120.748 235.761H198.915C205.862 235.761 211.494 242.592 211.494 251.021V323.826C211.482 332.255 205.851 339.086 198.903 339.086Z" fill="#FFCB7E"/>
<path d="M152.6 297.186C143.231 297.186 135.61 289.565 135.61 280.196C135.61 270.827 143.231 263.207 152.6 263.207C161.969 263.207 169.589 270.827 169.589 280.196C169.589 289.565 161.969 297.186 152.6 297.186ZM152.6 268.56C146.185 268.56 140.964 273.782 140.964 280.196C140.964 286.611 146.185 291.832 152.6 291.832C159.015 291.832 164.236 286.611 164.236 280.196C164.248 273.782 159.027 268.56 152.6 268.56Z" fill="#FBFBFB"/>
<path d="M164.596 289.506L161.876 292.226L166.89 297.239L169.609 294.52L164.596 289.506Z" fill="#FBFBFB"/>
<path d="M172.194 293.81L182.118 303.733C183.167 304.782 183.167 306.495 182.118 307.544L179.911 309.75C178.862 310.799 177.15 310.799 176.101 309.75L166.177 299.827C165.128 298.778 165.128 297.065 166.177 296.016L168.384 293.81C169.433 292.749 171.145 292.749 172.194 293.81Z" fill="#FBFBFB"/>
<path d="M131.691 833.238H5.71513C2.56695 833.238 0 830.688 0 827.523C0 824.375 2.5508 821.808 5.71513 821.808H131.691C134.839 821.808 137.406 824.359 137.406 827.523C137.406 830.688 134.855 833.238 131.691 833.238Z" fill="#FFCB7E"/>
<path d="M580.509 833.238H454.533C451.385 833.238 448.818 830.688 448.818 827.523C448.818 824.375 451.369 821.808 454.533 821.808H580.509C583.658 821.808 586.225 824.359 586.225 827.523C586.225 830.688 583.674 833.238 580.509 833.238Z" fill="#FFCB7E"/>
<path d="M522.145 319.713H465.901C461.815 319.713 458.505 315.836 458.505 311.051V257.338C458.505 252.553 461.815 248.677 465.901 248.677H522.145C526.231 248.677 529.541 252.553 529.541 257.338V311.059C529.535 315.836 526.225 319.713 522.145 319.713Z" fill="#FFCB7E"/>
<path d="M508.23 279.433C508.23 271.661 501.93 265.353 494.151 265.353C486.379 265.353 480.072 271.654 480.072 279.433C480.072 282.028 480.79 284.456 482.018 286.542H482.011L482.053 286.598C482.59 287.505 483.225 288.349 483.951 289.117L494.151 302.631L504.344 289.131C505.077 288.363 505.719 287.512 506.263 286.591L506.291 286.549H506.284C507.519 284.456 508.23 282.028 508.23 279.433ZM494.158 285.558C490.739 285.558 487.963 282.782 487.963 279.363C487.963 275.944 490.739 273.168 494.158 273.168C497.577 273.168 500.354 275.944 500.354 279.363C500.354 282.782 497.577 285.558 494.158 285.558Z" fill="#FBFBFB"/>
</svg>
