<svg width="835" height="545" viewBox="0 0 835 545" fill="none" xmlns="http://www.w3.org/2000/svg">
<g filter="url(#filter0_f_351_230)">
<path d="M737.789 338.149C737.789 161.769 592.561 18.7777 413.42 18.7777C234.278 18.7777 89.0648 161.769 89.0648 338.149C89.0648 412.192 114.665 480.353 157.629 534.522H669.241C712.189 480.353 737.789 412.192 737.789 338.149Z" fill="#FFDCA8"/>
</g>
<path d="M283.31 81.1419C283.31 81.1419 279.046 111.661 242.611 130.714C203.751 151.035 231.37 212.147 298.981 214.22C372.407 216.471 412.518 151.02 357.565 69.0209L283.31 81.1419Z" fill="#FB795C"/>
<path d="M306.047 176.217L306.439 123.543H338.956L339.649 176.828L306.047 176.217Z" fill="#A4371F"/>
<path d="M302.311 138.974C300.593 134.307 313.581 160.577 327.067 158.863C338.64 157.402 340.583 136.797 340.583 136.797C340.583 136.797 335.234 144.639 323.014 144.654C309.408 144.669 302.311 138.974 302.311 138.974Z" fill="#3A1616"/>
<path d="M282.933 94.4855C287.077 117.967 300.864 137.737 322.999 137.737C345.119 137.737 360.337 118.206 363.065 94.4855C366.154 67.5747 345.134 51.6966 322.999 51.6966C300.864 51.6966 278.684 70.3627 282.933 94.4855Z" fill="#FB795C"/>
<path d="M288.372 106.726C288.372 106.726 285.494 102.193 279.543 104.415C273.591 106.651 276.288 120.949 285.208 122.768C285.208 122.768 288.403 123.454 290.919 121.292C290.904 121.292 288.704 110.736 288.372 106.726Z" fill="#A4371F"/>
<path d="M280.718 109.469C280.718 109.469 285.705 107.829 289.231 115.09" stroke="#161311" stroke-width="1.0236" stroke-miterlimit="10" stroke-linecap="round" stroke-linejoin="round"/>
<path d="M356.691 106.726C356.691 106.726 359.569 102.193 365.521 104.415C371.472 106.651 368.775 120.949 359.855 122.768C359.855 122.768 356.661 123.454 354.144 121.292C354.144 121.292 356.344 110.736 356.691 106.726Z" fill="#A4371F"/>
<path d="M364.346 109.469C364.346 109.469 359.358 107.829 355.832 115.09" stroke="#161311" stroke-width="1.0236" stroke-miterlimit="10" stroke-linecap="round" stroke-linejoin="round"/>
<path d="M287.8 94.4109C287.8 103.565 288.749 120.8 294.761 132.175C300.397 142.85 310.432 148.277 322.652 148.292C334.691 148.292 345.721 140.182 350.558 131.012C357.851 117.147 357.505 94.5749 357.505 94.5749C357.505 94.5749 357.505 61.8496 323.029 61.8496C286.73 61.8496 287.8 94.4109 287.8 94.4109Z" fill="#A4371F"/>
<path d="M314.892 92.8306L295.982 97.6611C295.982 97.6611 296.84 92.4131 304.57 90.5047C312.315 88.6113 314.892 92.8306 314.892 92.8306Z" fill="black"/>
<path d="M326.917 92.8306L345.827 97.6611C345.827 97.6611 344.968 92.4131 337.238 90.5048C329.493 88.6113 326.917 92.8306 326.917 92.8306Z" fill="black"/>
<path d="M319.819 108.321L318.961 115H323.858" stroke="#161311" stroke-width="1.0236" stroke-miterlimit="10" stroke-linecap="round" stroke-linejoin="round"/>
<path d="M335.942 120.681H308.398C308.398 120.681 309.181 130.7 322.095 130.729C333.998 130.744 335.942 120.681 335.942 120.681Z" fill="white"/>
<path d="M310.974 103.565C310.974 103.565 305.746 100.926 301.331 103.565" stroke="black" stroke-width="1.0236" stroke-miterlimit="10" stroke-linecap="round" stroke-linejoin="round"/>
<path d="M341.05 103.565C341.05 103.565 335.822 100.926 331.407 103.565" stroke="black" stroke-width="1.0236" stroke-miterlimit="10" stroke-linecap="round" stroke-linejoin="round"/>
<path d="M356.691 106.726C356.691 106.726 347.514 88.7306 353.918 72.7183C353.918 72.7183 360.307 72.8077 360.081 97.7952L356.691 106.726Z" fill="#FB795C"/>
<path d="M288.372 106.726C288.372 106.726 297.519 87.5975 291.145 72.7183C291.145 72.7183 284.756 72.8077 284.982 97.7952L288.372 106.726Z" fill="#FB795C"/>
<path d="M363.351 86.6284C363.351 86.6284 313.626 83.7212 299.221 63.7729C299.221 63.7729 303.923 51.3686 326.073 54.7976C348.238 58.2416 363.351 86.6284 363.351 86.6284Z" fill="#FB795C"/>
<path d="M319.609 58.6591C319.609 58.6591 305.535 87.5677 285.434 86.5986C285.419 86.5986 296.464 58.9424 319.609 58.6591Z" fill="#FB795C"/>
<path d="M290.829 506.273C290.829 506.273 305.58 433.859 314.244 414.12C315.028 412.331 317.65 412.569 318.177 414.448C320.272 421.977 323.014 444.147 321.793 509.403L321.824 536.076H379.73L388.801 471.877C389.268 466.957 407.862 386.493 361.136 324.457H270.487C270.487 324.457 233.841 386.836 228.778 463.126C227.648 480.107 227.256 506.034 224.921 536.076H284.394L290.829 506.273Z" fill="#0F2C82"/>
<path d="M289.231 402.416L318.99 414.448" stroke="#FFCB7E" stroke-width="1.9923" stroke-miterlimit="10"/>
<path d="M246.559 185.49C246.559 185.49 227.573 188.159 213.68 235.212L251.094 256.427L273.169 226.386L246.559 185.49Z" fill="#FF9900"/>
<path d="M251.079 256.427C251.079 256.427 226.232 294.967 220.34 301.9C214.237 309.071 205.001 312.619 196.985 307.655C189.752 303.182 187.085 294.058 190.761 286.454L216.558 236.628L251.079 256.427Z" fill="#A4371F"/>
<path d="M191.093 185.55L220.838 281.325L189.119 294.982L170.043 186.981L191.093 185.55Z" fill="#A4371F"/>
<path d="M189.044 190.321L193.685 185.893C197.091 182.642 199.2 178.289 199.622 173.637L200.812 160.652C200.812 160.652 201.566 153.808 187.809 155.523C174.051 157.238 173.253 157.327 173.404 161.367C173.404 161.367 175.92 166.973 184.78 168.106L189.044 190.321Z" fill="#A4371F"/>
<path d="M171.641 192.303C171.641 192.303 158.064 184.864 157.431 161.323C157.356 158.609 158.712 156.045 161.002 154.554C164.528 152.258 174.684 146.488 180.124 150.185L189.662 162.366L189.044 190.321L171.641 192.303Z" fill="#A4371F"/>
<path d="M191.651 158.251L199.23 120.338C199.682 118.086 198.22 115.88 195.945 115.403C193.67 114.926 191.425 116.342 190.912 118.578L184.222 147.248L181.013 147.86L169.908 118.847C169.124 116.804 166.788 115.82 164.769 116.685C162.991 117.43 162.057 119.354 162.554 121.202L173.464 161.367L191.651 158.251Z" fill="#A4371F"/>
<path d="M192.253 155.255C192.253 155.255 173.584 153.495 173.433 161.367C173.433 161.367 173.027 167.256 184.81 168.106C184.81 168.106 177.457 170.149 177.155 178.274" stroke="#BF704F" stroke-width="0.9962" stroke-miterlimit="10"/>
<path d="M210.561 248.227L218.457 273.662" stroke="#BF704F" stroke-width="0.9962" stroke-miterlimit="10"/>
<path d="M374.08 240.445C374.08 240.445 403.628 343.272 414.944 429.446L433.99 425.868C433.99 425.868 431.082 299.604 411.886 221.48L374.08 240.445Z" fill="#A4371F"/>
<path d="M433.825 421.559C433.825 421.559 462.484 463.424 428.084 482.239C425.824 483.477 422.961 482.97 421.288 481.017L421.062 480.763C419.209 478.601 419.42 475.456 421.424 473.443C426.306 468.538 432.876 458.385 422.403 445.131C422.403 445.131 416.904 446.517 417.823 457.311C418.064 460.084 415.728 462.425 412.926 462.172C411.012 461.993 409.445 460.636 408.978 458.787C407.17 451.676 404.186 434.023 415.698 424.541L433.825 421.559Z" fill="#A4371F"/>
<path d="M392.282 194.063C392.282 194.063 419.465 202.889 424.241 245.275L380.062 261.854L370.117 234.973L392.282 194.063Z" fill="#A4371F"/>
<path d="M366.184 184.253L392.719 194.182L361.151 312.306H270.487L246.559 185.49L277.991 178.274L366.184 184.253Z" fill="#FF9900"/>
<path d="M361.136 312.306H270.487V324.457H361.136V312.306Z" fill="#1A1A1A"/>
<path d="M258.131 246.841L251.079 215.263" stroke="#C2A161" stroke-width="1.9923" stroke-miterlimit="10"/>
<path d="M376.912 253.326L386.435 218.141" stroke="#C12D71" stroke-width="1.9923" stroke-miterlimit="10"/>
<path d="M331.301 170.492L366.199 184.253C366.199 184.253 362.146 197.85 321.191 197.85C285.51 197.85 277.991 178.274 277.991 178.274L311.879 170.492H331.301Z" fill="#A4371F"/>
<path d="M559.914 344.867L597.855 536.896H524.308L496.101 409.99L489.606 409.602L489.516 536.896H416.165L419.917 344.867H559.914Z" fill="#FF9900"/>
<path d="M477.19 408.708H519.064" stroke="#C2A161" stroke-width="1.9923" stroke-miterlimit="10"/>
<path d="M593.712 210.09L662.934 192.572C676.721 188.74 684.873 174.696 681.272 160.98C677.565 146.846 662.829 138.512 648.635 142.492L579.337 161.964L593.712 210.09Z" fill="#FFCFC5"/>
<path d="M601.336 149.5L533.74 158.296L553.073 226.564L617.639 213.266L601.336 149.5Z" fill="white"/>
<path d="M633.627 64.4885C635.36 53.754 631.156 40.0377 631.156 40.0377L632.693 15.9447C632.994 13.6636 631.502 11.5167 629.257 10.98C626.816 10.3985 624.36 11.8596 623.742 14.26L621.708 29.8101L619.553 29.7654L616.63 4.76294C616.404 1.7215 613.571 -0.455215 610.528 0.0815095C607.996 0.52878 606.188 2.73531 606.263 5.26985L608.192 32.3297L605.977 32.7621L598.232 5.79166C597.403 2.66077 594.088 0.856779 590.969 1.82586C588.106 2.72041 586.404 5.64257 587.097 8.54983L595.098 39.4264L592.295 40.1868L581.793 18.4941C580.572 15.9894 577.438 15.0651 575.027 16.5112C573.098 17.6741 572.255 20.0149 573.008 22.117L583.661 50.966L574.846 50.7424C570.718 50.7573 567.508 54.2907 567.915 58.346C568.201 61.2085 570.266 63.6088 573.083 64.3394L584.686 67.1125C584.686 67.1125 592.521 77.8768 605.525 82.5433C605.51 82.5582 632.301 72.6735 633.627 64.4885Z" fill="#FFCFC5"/>
<path d="M583.646 50.966C583.646 50.966 600.477 49.982 610.467 59.3747" stroke="#D8857D" stroke-width="0.9962" stroke-miterlimit="10"/>
<path d="M680.353 158.147L633.627 64.4885L604.124 76.7586L633.838 179.81L680.353 158.147Z" fill="#FFCFC5"/>
<path d="M624.993 149.127L629.573 165.005" stroke="#D8857D" stroke-width="0.9962" stroke-miterlimit="10"/>
<path d="M473.318 154.584L417.973 165.915L419.917 344.867H559.914L564.299 161.009L511.636 156.507L473.318 154.584Z" fill="white"/>
<path d="M562.746 224.626V201.517" stroke="#070924" stroke-width="1.9923" stroke-miterlimit="10"/>
<path d="M377.846 211.387L337.931 282.906C330.94 295.429 335.37 311.173 347.891 318.315C360.247 325.381 376.038 321.49 383.633 309.518L425.07 244.097L377.846 211.387Z" fill="#FFCFC5"/>
<path d="M365.476 221.346L422.734 257.709L431.926 214.279C441.615 198.804 453.94 180.123 438.435 170.283C422.734 160.324 401.85 164.871 391.83 180.421L365.476 221.346Z" fill="white"/>
<path d="M418.967 255.309V206.661" stroke="#070924" stroke-width="1.9923" stroke-miterlimit="10"/>
<path d="M357.565 321.61L462.348 318.762L469.566 285.261L351.116 270.442L357.565 321.61Z" fill="#FFCFC5"/>
<path d="M404.201 277.046L376.912 273.662" stroke="#D8857D" stroke-width="0.9962" stroke-miterlimit="10"/>
<path d="M462.604 286.633C462.604 286.633 476.015 268.697 491.791 286.558L485.522 298.888L462.604 286.633Z" fill="#FFCFC5"/>
<path d="M478.38 267.624L474.237 292.716L506.211 296.234L511.289 272.126C511.832 269.532 510.023 267.027 507.356 266.699L483.458 263.852C481.017 263.554 478.787 265.223 478.38 267.624Z" fill="#1A1A1A"/>
<path d="M469.355 284.486L507.19 285.41C511.575 285.515 515.071 289.063 515.071 293.402C515.071 296.473 513.293 299.276 510.505 300.603L508.486 301.572C508.486 301.572 512.344 329.914 489.621 333.283C466.883 336.653 454.151 318.881 454.151 318.881L469.355 284.486Z" fill="#FFCFC5"/>
<path d="M513.73 156.582L513.203 100.061H471.735L470.801 155.106L513.73 156.582Z" fill="#FFCFC5"/>
<path d="M468.315 116.566C466.16 111.69 482.72 143.596 499.627 141.807C514.122 140.271 514.725 114.285 514.725 114.285C514.725 114.285 509.587 122.485 494.277 122.514C477.205 122.529 468.315 116.566 468.315 116.566Z" fill="#D8857D"/>
<path d="M535.293 68.8867C530.848 94.0829 516.051 115.284 492.318 115.284C468.586 115.284 452.268 94.3215 449.344 68.8867C446.029 40.0228 468.586 20.8498 492.318 20.8498C516.051 20.8498 539.843 43.0196 535.293 68.8867Z" fill="#2F1118"/>
<path d="M529.461 82.0215C529.461 82.0215 532.55 77.1462 538.939 79.5466C545.328 81.9469 542.435 97.2734 532.867 99.2414C532.867 99.2414 529.431 99.9868 526.749 97.661C526.734 97.661 529.085 86.3302 529.461 82.0215Z" fill="#FFCFC5"/>
<path d="M537.674 84.9585C537.674 84.9585 532.324 83.1993 528.527 90.9818" stroke="#161311" stroke-width="1.0982" stroke-miterlimit="10" stroke-linecap="round" stroke-linejoin="round"/>
<path d="M456.155 82.0215C456.155 82.0215 453.066 77.1462 446.678 79.5466C440.289 81.9469 443.182 97.2734 452.75 99.2414C452.75 99.2414 456.186 99.9868 458.868 97.661C458.883 97.661 456.532 86.3302 456.155 82.0215Z" fill="#FFCFC5"/>
<path d="M447.943 84.9585C447.943 84.9585 453.292 83.1993 457.089 90.9818" stroke="#161311" stroke-width="1.0982" stroke-miterlimit="10" stroke-linecap="round" stroke-linejoin="round"/>
<path d="M530.064 68.8121C530.064 78.6371 529.039 99.2116 522.605 111.407C516.563 122.872 506.558 129.03 493.449 129.402C482.992 129.701 467.923 119.995 462.74 110.155C454.92 95.2756 455.281 68.991 455.281 68.991C455.281 68.991 455.281 33.8803 492.258 33.8803C531.224 33.8803 530.064 68.8121 530.064 68.8121Z" fill="#FFCFC5"/>
<path d="M479.752 80.7095C479.752 82.2749 478.471 83.5422 476.889 83.5422C475.307 83.5422 474.026 82.2749 474.026 80.7095C474.026 79.144 475.307 77.8768 476.889 77.8768C478.471 77.8917 479.752 79.1589 479.752 80.7095Z" fill="#1A1A1A"/>
<path d="M509.285 80.7095C509.285 82.2749 508.004 83.5422 506.422 83.5422C504.84 83.5422 503.559 82.2749 503.559 80.7095C503.559 79.144 504.84 77.8768 506.422 77.8768C508.004 77.8917 509.285 79.1589 509.285 80.7095Z" fill="#1A1A1A"/>
<path d="M484.634 69.1997L464.352 74.3881C464.352 74.3881 465.271 68.7525 473.574 66.7099C481.861 64.6674 484.634 69.1997 484.634 69.1997Z" fill="#1A1A1A"/>
<path d="M497.517 69.1998L517.799 74.3881C517.799 74.3881 516.88 68.7525 508.577 66.7099C500.29 64.6674 497.517 69.1998 497.517 69.1998Z" fill="#1A1A1A"/>
<path d="M488.988 87.8956V95.0669H494.247" stroke="#161311" stroke-width="1.0982" stroke-miterlimit="10" stroke-linecap="round" stroke-linejoin="round"/>
<path d="M508.2 101.105H477.145C477.145 101.105 478.004 109.186 491.866 109.201C504.629 109.216 508.2 101.105 508.2 101.105Z" fill="white"/>
<path d="M456.155 82.0215C456.155 82.0215 470.003 60.9998 459.124 45.5391C459.124 45.5391 452.268 45.6435 452.509 72.435L456.155 82.0215Z" fill="#2F1118"/>
<path d="M529.446 82.0215C529.446 82.0215 515.599 60.9998 526.478 45.5391C526.478 45.5391 533.334 45.6435 533.093 72.435L529.446 82.0215Z" fill="#2F1118"/>
<path d="M455.432 44.5253C455.432 44.5253 473.318 64.5332 510.144 60.6122C543.038 57.1086 545.885 34.2828 538.05 25.2629C526.855 12.3666 502.173 17.1673 488.973 31.5545L455.432 44.5253Z" fill="#2F1118"/>
<path d="M470.801 155.105L492.68 182.926L513.73 156.582L470.801 155.105Z" fill="#FFCFC5"/>
<path d="M470.801 151.17L457.903 157.744L472.489 186.668L487.06 175.784L470.801 151.17Z" fill="#070924"/>
<path d="M513.836 151.17L528.361 157.938L513.007 186.668L498.542 175.471L513.836 151.17Z" fill="#070924"/>
<path d="M0 537H834.107" stroke="#FDFCFF" stroke-width="1.9923" stroke-miterlimit="10"/>
<defs>
<filter id="filter0_f_351_230" x="79.0648" y="8.77773" width="668.725" height="535.745" filterUnits="userSpaceOnUse" color-interpolation-filters="sRGB">
<feFlood flood-opacity="0" result="BackgroundImageFix"/>
<feBlend mode="normal" in="SourceGraphic" in2="BackgroundImageFix" result="shape"/>
<feGaussianBlur stdDeviation="5" result="effect1_foregroundBlur_351_230"/>
</filter>
</defs>
</svg>
